<svg width="36" height="36" viewBox="0 0 36 36" fill="none" xmlns="http://www.w3.org/2000/svg">
<circle cx="18" cy="18" r="18" fill="#0A0A0A"/>
<path d="M17.1282 26V10H18.1795V26H17.1282ZM19.4103 15.6C19.3761 15.1833 19.2158 14.8583 18.9295 14.625C18.6474 14.3917 18.2179 14.275 17.641 14.275C17.2735 14.275 16.9722 14.3188 16.7372 14.4063C16.5064 14.4896 16.3355 14.6042 16.2244 14.75C16.1132 14.8958 16.0556 15.0625 16.0513 15.25C16.0427 15.4042 16.0705 15.5438 16.1346 15.6688C16.203 15.7896 16.3098 15.9 16.4551 16C16.6004 16.0958 16.7863 16.1833 17.0128 16.2625C17.2393 16.3417 17.5085 16.4125 17.8205 16.475L18.8974 16.7C19.6239 16.85 20.2457 17.0479 20.7628 17.2937C21.2799 17.5396 21.703 17.8292 22.0321 18.1625C22.3611 18.4917 22.6026 18.8625 22.7564 19.275C22.9145 19.6875 22.9957 20.1375 23 20.625C22.9957 21.4667 22.7799 22.1792 22.3526 22.7625C21.9252 23.3458 21.3141 23.7896 20.5192 24.0937C19.7286 24.3979 18.7778 24.55 17.6667 24.55C16.5256 24.55 15.5299 24.3854 14.6795 24.0562C13.8333 23.7271 13.1752 23.2208 12.7051 22.5375C12.2393 21.85 12.0043 20.9708 12 19.9H15.3846C15.406 20.2917 15.5064 20.6208 15.6859 20.8875C15.8654 21.1542 16.1175 21.3563 16.4423 21.4937C16.7714 21.6312 17.1624 21.7 17.6154 21.7C17.9957 21.7 18.3141 21.6542 18.5705 21.5625C18.8269 21.4708 19.0214 21.3438 19.1538 21.1813C19.2863 21.0188 19.3547 20.8333 19.359 20.625C19.3547 20.4292 19.2885 20.2583 19.1603 20.1125C19.0363 19.9625 18.8312 19.8292 18.5449 19.7125C18.2585 19.5917 17.8718 19.4792 17.3846 19.375L16.0769 19.1C14.9145 18.8542 13.9979 18.4437 13.3269 17.8688C12.6603 17.2896 12.3291 16.5 12.3333 15.5C12.3291 14.6875 12.5513 13.9771 13 13.3688C13.453 12.7563 14.0791 12.2792 14.8782 11.9375C15.6816 11.5958 16.6026 11.425 17.641 11.425C18.7009 11.425 19.6175 11.5979 20.391 11.9438C21.1645 12.2896 21.7607 12.7771 22.1795 13.4063C22.6026 14.0313 22.8162 14.7625 22.8205 15.6H19.4103Z" fill="white"/>
</svg>
