<svg width="70" height="86" viewBox="0 0 70 86" fill="none" xmlns="http://www.w3.org/2000/svg">
<path fill-rule="evenodd" clip-rule="evenodd" d="M34.0497 0C37.9987 9.12619 54.3211 16.3224 68.099 6.66921V66.606C68.099 75.9959 60.2886 77.4003 56.1635 77.4003C41.772 77.4003 36.4186 83.3669 33.9616 86C31.5047 83.3669 26.3265 77.4003 11.935 77.4003C7.81035 77.4003 0 75.9964 0 66.606V6.6697C13.7778 16.3224 30.1003 9.12668 34.0497 0Z" fill="white"/>
<path fill-rule="evenodd" clip-rule="evenodd" d="M2.08301 15.2099H4.46952L5.20304 12.9585L5.93705 15.2099H8.3172L6.39018 16.608L7.12712 18.8717L5.2001 17.4707L3.28238 18.8653L4.01639 16.6109L2.08301 15.2099ZM10.2442 15.2099H12.6307L13.3647 12.9585L14.0983 15.2099H16.4784L14.5514 16.608L15.2883 18.8717L13.3613 17.4707L11.4441 18.8653L12.1776 16.6109L10.2442 15.2099Z" fill="black"/>
<path fill-rule="evenodd" clip-rule="evenodd" d="M10.2442 15.2099H12.6307L13.3647 12.9585L14.0983 15.2099H16.4784L14.5514 16.608L15.2883 18.8717L13.3613 17.4707L11.4441 18.8653L12.1776 16.6109L10.2442 15.2099ZM18.4054 15.2099H20.7919L21.5259 12.9585L22.2595 15.2099H24.6401L22.7131 16.608L23.4495 18.8717L21.523 17.4707L19.6053 18.8653L20.3388 16.6109L18.4054 15.2099ZM2.08301 22.8446H4.46952L5.20304 20.5932L5.93705 22.8446H8.3172L6.39018 24.2427L7.12712 26.5064L5.2001 25.1054L3.28238 26.5005L4.01639 24.2456L2.08301 22.8446ZM10.2442 22.8446H12.6307L13.3647 20.5932L14.0983 22.8446H16.4784L14.5514 24.2427L15.2883 26.5064L13.3613 25.1054L11.4441 26.5005L12.1776 24.2456L10.2442 22.8446Z" fill="black"/>
<path fill-rule="evenodd" clip-rule="evenodd" d="M10.2442 22.8442H12.6307L13.3647 20.5928L14.0983 22.8442H16.4784L14.5514 24.2423L15.2883 26.506L13.3613 25.105L11.4441 26.5001L12.1776 24.2452L10.2442 22.8442ZM2.08301 30.3913H4.46952L5.20304 28.1399L5.93705 30.3913H8.3172L6.39018 31.7894L7.12712 34.053L5.2001 32.6521L3.28238 34.0472L4.01639 31.7923L2.08301 30.3913ZM10.2442 30.3913H12.6307L13.3647 28.1399L14.0983 30.3913H16.4784L14.5514 31.7894L15.2883 34.053L13.3613 32.6521L11.4441 34.0472L12.1776 31.7923L10.2442 30.3913Z" fill="black"/>
<path fill-rule="evenodd" clip-rule="evenodd" d="M10.2444 30.3917H12.6309L13.365 28.1403L14.0985 30.3917H16.4786L14.5516 31.7898L15.2886 34.0534L13.3615 32.6525L11.4443 34.0476L12.1778 31.7927L10.2444 30.3917ZM64.7637 36.1556V65.8175C64.7637 72.2229 61.3413 74.0663 55.1096 74.0663C42.9994 74.1544 36.9448 78.3661 34.0489 81.0863C31.1529 78.3661 25.0979 74.1544 12.9872 74.0663C6.75643 74.0663 3.33398 72.2224 3.33398 65.8175V36.1556H64.7637ZM66.015 15.2099H63.6285L62.8945 12.9585L62.1614 15.2099H59.7808L61.7073 16.608L60.9704 18.8717L62.8984 17.4707L64.8156 18.8653L64.0816 16.6109L66.015 15.2099ZM57.8538 15.2099H55.4673L54.7333 12.9585L54.0002 15.2099H51.6196L53.5461 16.608L52.8097 18.8717L54.7362 17.4707L56.6544 18.8653L55.9204 16.6109L57.8538 15.2099Z" fill="black"/>
<path fill-rule="evenodd" clip-rule="evenodd" d="M57.8543 15.2099H55.4678L54.7338 12.9585L54.0008 15.2099H51.6201L53.5466 16.608L52.8102 18.8717L54.7367 17.4707L56.6549 18.8653L55.9209 16.6109L57.8543 15.2099ZM66.0155 22.8446H63.629L62.895 20.5932L62.162 22.8446H59.7813L61.7079 24.2427L60.9709 26.5064L62.8989 25.1054L64.8161 26.5005L64.0821 24.2456L66.0155 22.8446ZM57.8543 22.8446H55.4678L54.7338 20.5932L54.0008 22.8446H51.6201L53.5466 24.2427L52.8102 26.5064L54.7367 25.1054L56.6549 26.5005L55.9209 24.2456L57.8543 22.8446Z" fill="black"/>
<path fill-rule="evenodd" clip-rule="evenodd" d="M57.8543 22.8442H55.4678L54.7338 20.5928L54.0008 22.8442H51.6201L53.5466 24.2423L52.8102 26.506L54.7367 25.105L56.6549 26.5001L55.9209 24.2452L57.8543 22.8442ZM66.0155 30.3913H63.629L62.895 28.1399L62.162 30.3913H59.7813L61.7079 31.7894L60.9709 34.053L62.8989 32.6521L64.8161 34.0472L64.0821 31.7923L66.0155 30.3913ZM57.8543 30.3913H55.4678L54.7338 28.1399L54.0008 30.3913H51.6201L53.5466 31.7894L52.8102 34.053L54.7367 32.6521L56.6549 34.0472L55.9209 31.7923L57.8543 30.3913Z" fill="black"/>
<path fill-rule="evenodd" clip-rule="evenodd" d="M57.8542 30.3914H55.4677L54.7337 28.14L54.0006 30.3914H51.62L53.5465 31.7895L52.8101 34.0532L54.7366 32.6522L56.6548 34.0473L55.9208 31.7924L57.8542 30.3914ZM49.693 30.3914H47.3065L46.5725 28.14L45.8385 30.3914H43.4588L45.3858 31.7895L44.6489 34.0532L46.5754 32.6522L48.4936 34.0473L47.7596 31.7924L49.693 30.3914ZM31.1309 7.66258H33.5174L34.2509 5.41113L34.9844 7.66258H37.365L35.4385 9.06063L36.174 11.3243L34.248 9.92333L32.3302 11.318L33.0637 9.06356L31.1309 7.66258Z" fill="black"/>
<path fill-rule="evenodd" clip-rule="evenodd" d="M28.8724 68.7132C28.8724 69.2828 28.8724 70.6437 27.995 71.0826C27.1176 71.5215 26.942 72.0916 27.0296 72.4425C27.1172 72.7933 27.512 73.1887 28.2142 73.4079C28.9165 73.6277 30.2328 74.0666 34.1377 76.9185C34.8394 77.3569 35.5421 77.0932 35.7608 76.8304C35.9806 76.5676 36.0686 75.8214 35.4981 75.1627C34.8761 74.4458 34.2258 73.3199 34.2258 71.6532V55.2862H38.2183C39.1838 55.2862 40.1488 55.55 40.4566 57.2167C40.7193 58.3138 42.2554 58.4899 42.2554 57.3048V48.4854C42.2554 47.5199 40.5437 47.608 40.3249 48.5735C40.1052 49.5389 40.0612 51.2506 38.7448 51.2506H34.2258V42.3863H39.1397C39.886 42.3863 40.6317 42.6495 41.0702 43.2636C41.5096 43.8783 42.87 45.5019 43.7914 45.1065C44.2298 44.9318 44.4491 44.4919 44.2299 43.6585L42.1673 38.0864H27.995C27.1176 38.0864 26.6787 38.3937 26.5906 38.7886C26.503 39.1835 26.7663 39.9298 27.3804 40.2366C27.9945 40.5439 28.8724 41.158 28.8724 42.5624V68.7132Z" fill="white"/>
<path fill-rule="evenodd" clip-rule="evenodd" d="M46.5106 64.983C46.5106 65.5976 46.5106 67.0896 45.6333 67.7918C44.7559 68.4935 42.6052 70.512 43.5266 71.7398C43.8785 72.2223 44.8435 72.0916 46.0717 71.6527C47.3009 71.2142 50.8981 71.0821 52.2144 71.1262C53.5312 71.1702 59.762 72.3104 62.2189 64.9385C63.8426 59.8493 61.5603 53.8373 56.9977 53.7497C54.4086 53.7057 53.1363 55.023 52.9166 56.9094C52.6969 58.7958 54.2324 61.6041 57.5242 61.0776C58.4456 60.9029 58.6644 61.2097 58.6644 61.9559C58.6644 62.7012 58.4016 67.2212 54.1018 67.2212C53.3991 67.2212 52.346 67.2653 51.8635 67.2653V43.1756C51.8635 42.0349 53.2234 40.4553 54.1458 39.8412C54.8475 39.4027 54.8035 38.0859 53.9701 38.0859H44.5802C43.9656 38.0859 43.352 38.7881 44.2293 39.7096C45.1067 40.631 46.5106 41.3327 46.5106 43.3512V64.983ZM63.5534 79.9162H66.2129V80.3081H65.1046V83.1928H64.6617V80.3081H63.5534V79.9162ZM69.3202 83.1928V81.2574C69.3202 81.162 69.33 80.7471 69.33 80.4412H69.3202L68.3988 83.1928H67.9604L67.0389 80.4461H67.0291C67.0291 80.7471 67.0389 81.162 67.0389 81.2574V83.1928H66.6098V79.9167H67.2445L68.1801 82.6863H68.1889L69.1196 79.9167H69.7494V83.1928H69.3202ZM6.18709 38.0859C5.52893 38.0859 4.87076 38.3932 4.73913 38.9633C4.62854 39.4419 4.73913 40.1921 5.44133 40.4994C6.14354 40.8067 7.1966 41.4208 7.1966 43.0444V62.6136C7.1966 63.3598 7.10851 64.4124 6.0995 64.2813C5.09048 64.1492 4.82672 64.6321 4.78317 64.9389C4.73913 65.2467 4.91481 67.3093 7.81072 69.1957C8.77619 69.8093 11.4964 71.6091 12.5935 70.7308C13.1201 70.3359 12.5495 68.4495 12.023 67.8358C11.4964 67.2212 11.1456 66.475 11.1456 65.4214V50.0645L18.6927 69.7663C19.2192 71.0821 20.8864 72.3544 22.1151 71.9595C23.3438 71.5646 23.5195 70.5996 23.5195 69.8088V42.5619C23.5195 41.7721 23.5631 41.0699 25.0991 40.2361C25.8889 39.8852 26.1962 38.0859 24.7923 38.0859H16.9384C16.0169 38.0859 15.4023 39.2266 16.2802 39.9288C17.1576 40.631 18.9569 41.5084 18.9569 42.9568V55.6376L13.0755 40.3242C12.593 39.1395 11.7592 38.0864 10.8378 38.0864L6.18709 38.0859Z" fill="white"/>
<path fill-rule="evenodd" clip-rule="evenodd" d="M28.0825 25.8882L28.521 26.9412L22.3343 29.4422C24.7912 32.733 32.1191 33.3912 37.2963 30.671C42.269 28.0584 45.5892 24.7475 46.2478 19.8331L40.1042 22.2685L39.7093 21.2595L45.7648 18.7805C44.9305 17.4642 38.5251 14.3926 31.1532 17.4201C24.3959 19.8336 21.7197 25.8886 21.8513 28.3897L28.0825 25.8882Z" fill="black"/>
<path fill-rule="evenodd" clip-rule="evenodd" d="M29.9577 27.0029C30.0509 26.9651 30.1252 26.8918 30.1645 26.7993C30.2038 26.7067 30.2047 26.6024 30.1671 26.5091L29.6073 25.1253C29.5887 25.0791 29.5611 25.037 29.5262 25.0015C29.4913 24.966 29.4497 24.9377 29.4038 24.9183C29.358 24.8988 29.3088 24.8886 29.259 24.8882C29.2092 24.8878 29.1598 24.8972 29.1136 24.9158L29.0289 24.9369C28.9358 24.9747 28.8614 25.0479 28.8221 25.1404C28.7829 25.233 28.7819 25.3374 28.8195 25.4306L29.3793 26.815C29.417 26.9081 29.4901 26.9824 29.5826 27.0217C29.6751 27.061 29.7794 27.0619 29.8726 27.0244L29.9577 27.0029ZM31.296 26.4763C31.3422 26.4577 31.3842 26.4302 31.4197 26.3953C31.4552 26.3604 31.4835 26.3189 31.503 26.2731C31.5224 26.2273 31.5327 26.1781 31.5331 26.1283C31.5335 26.0786 31.5241 26.0292 31.5055 25.9831L30.9457 24.5987C30.908 24.5056 30.8349 24.4312 30.7424 24.392C30.6499 24.3527 30.5456 24.3517 30.4524 24.3893L30.3673 24.4103C30.3211 24.429 30.2791 24.4566 30.2435 24.4915C30.208 24.5264 30.1797 24.568 30.1603 24.6138C30.1409 24.6597 30.1306 24.7089 30.1302 24.7587C30.1298 24.8085 30.1392 24.8579 30.1578 24.9041L30.7176 26.2884C30.7363 26.3346 30.7639 26.3766 30.7988 26.4122C30.8337 26.4477 30.8753 26.476 30.9211 26.4954C30.967 26.5148 31.0162 26.5251 31.066 26.5255C31.1158 26.5259 31.1652 26.5165 31.2114 26.4979L31.296 26.4763ZM32.6344 25.9498C32.7275 25.9121 32.8019 25.839 32.8411 25.7465C32.8804 25.654 32.8814 25.5497 32.8438 25.4565L32.284 24.0722C32.2462 23.979 32.173 23.9047 32.0804 23.8654C31.9879 23.8261 31.8835 23.8252 31.7903 23.8628L31.7056 23.8838C31.6595 23.9024 31.6174 23.93 31.5819 23.9648C31.5464 23.9997 31.5181 24.0412 31.4987 24.087C31.4792 24.1328 31.469 24.182 31.4686 24.2318C31.4681 24.2816 31.4775 24.3309 31.4962 24.3771L32.056 25.7614C32.0937 25.8545 32.1668 25.9289 32.2593 25.9682C32.3518 26.0074 32.4561 26.0084 32.5492 25.9708L32.6344 25.9498ZM33.9722 25.4233C34.0654 25.3856 34.1397 25.3124 34.179 25.22C34.2183 25.1275 34.2192 25.0232 34.1817 24.93L33.6224 23.5457C33.5847 23.4525 33.5115 23.3782 33.4191 23.3389C33.3266 23.2997 33.2223 23.2987 33.1291 23.3362L33.0445 23.3573C32.9983 23.3759 32.9562 23.4035 32.9207 23.4384C32.8852 23.4734 32.8569 23.5149 32.8375 23.5608C32.818 23.6066 32.8078 23.6559 32.8074 23.7057C32.807 23.7555 32.8163 23.8048 32.835 23.851L33.3948 25.2354C33.4326 25.3285 33.5058 25.4029 33.5984 25.4422C33.691 25.4814 33.7953 25.4824 33.8886 25.4448L33.9722 25.4233ZM35.3101 24.8967C35.3564 24.8782 35.3985 24.8507 35.4341 24.8158C35.4697 24.7809 35.4981 24.7393 35.5177 24.6935C35.5372 24.6476 35.5475 24.5984 35.548 24.5485C35.5485 24.4987 35.5392 24.4492 35.5205 24.403L34.9602 23.0187C34.9225 22.9255 34.8494 22.8512 34.7569 22.8119C34.6644 22.7726 34.5602 22.7717 34.467 22.8092L34.3823 22.8307C34.3362 22.8494 34.2941 22.8769 34.2586 22.9118C34.2231 22.9466 34.1948 22.9882 34.1754 23.034C34.1559 23.0798 34.1457 23.129 34.1453 23.1787C34.1448 23.2285 34.1542 23.2779 34.1729 23.324L34.7332 24.7083C34.7708 24.8016 34.8439 24.876 34.9363 24.9154C35.0288 24.9548 35.1332 24.9558 35.2264 24.9183L35.3101 24.8967ZM36.6489 24.3702C36.7421 24.3324 36.8165 24.2592 36.8557 24.1666C36.895 24.0741 36.8959 23.9697 36.8584 23.8765L36.2981 22.4921C36.2604 22.399 36.1873 22.3246 36.0948 22.2854C36.0023 22.2461 35.898 22.2451 35.8048 22.2827L35.7197 22.3037C35.6265 22.3414 35.5522 22.4146 35.5129 22.507C35.4737 22.5995 35.4727 22.7038 35.5102 22.797L36.0705 24.1813C36.0891 24.2275 36.1166 24.2696 36.1514 24.3052C36.1863 24.3407 36.2278 24.3691 36.2736 24.3886C36.3194 24.4081 36.3687 24.4183 36.4184 24.4188C36.4682 24.4193 36.5176 24.4099 36.5638 24.3913L36.6489 24.3702ZM37.9873 23.8437C38.0804 23.8059 38.1548 23.7327 38.1941 23.6401C38.2333 23.5475 38.2343 23.4432 38.1967 23.3499L37.6374 21.9656C37.5995 21.8724 37.5262 21.798 37.4336 21.7588C37.3409 21.7195 37.2365 21.7186 37.1432 21.7562L37.059 21.7772C37.0127 21.7958 36.9706 21.8233 36.935 21.8582C36.8994 21.893 36.871 21.9346 36.8514 21.9804C36.8319 22.0263 36.8216 22.0756 36.8211 22.1254C36.8206 22.1753 36.8299 22.2247 36.8486 22.2709L37.4089 23.6553C37.4275 23.7014 37.455 23.7435 37.4899 23.779C37.5248 23.8145 37.5663 23.8428 37.6121 23.8622C37.6579 23.8817 37.7071 23.8919 37.7569 23.8923C37.8066 23.8928 37.856 23.8834 37.9021 23.8647L37.9873 23.8437ZM39.3251 23.3172C39.3714 23.2986 39.4136 23.2712 39.4492 23.2363C39.4848 23.2014 39.5132 23.1598 39.5327 23.1139C39.5521 23.068 39.5623 23.0187 39.5627 22.9688C39.563 22.919 39.5534 22.8696 39.5346 22.8234L38.9753 21.4396C38.9375 21.3464 38.8644 21.2721 38.7719 21.2328C38.6795 21.1935 38.5752 21.1926 38.482 21.2301L38.3969 21.2512C38.3037 21.2889 38.2294 21.362 38.1901 21.4545C38.1508 21.5469 38.1499 21.6512 38.1874 21.7444L38.7467 23.1288C38.7654 23.175 38.793 23.2171 38.8279 23.2526C38.8629 23.2882 38.9045 23.3165 38.9504 23.336C38.9963 23.3554 39.0456 23.3656 39.0955 23.366C39.1453 23.3664 39.1948 23.3569 39.241 23.3382L39.3251 23.3172Z" fill="white"/>
<path fill-rule="evenodd" clip-rule="evenodd" d="M46.1719 17.7398L46.5751 17.4702L48.4933 18.8653L47.7593 16.6109L49.6927 15.2099H47.3062L46.5722 12.9585L45.8381 15.2099H43.4585L45.3855 16.608L45.2612 17.1017C45.5602 17.2847 45.8783 17.5265 46.1719 17.7398ZM37.6476 15.1772L38.4114 12.959L39.2105 15.2325C38.6907 15.1903 38.1691 15.1718 37.6476 15.1772ZM28.1255 17.7858L28.5004 16.6114L26.567 15.2104H28.9535L29.6875 12.959L30.421 15.2104H32.8012L30.9182 16.5209C29.5461 17.0171 28.4989 17.5637 28.1255 17.7858ZM22.7506 22.8666L22.2598 22.8446L21.5263 20.5932L20.7923 22.8446H18.4058L20.3391 24.2456L19.6056 26.5L21.5889 25.1269C21.8767 24.4223 22.2525 23.6334 22.7506 22.8666ZM23.102 31.5162L22.7134 31.7898L23.4499 34.0534L21.5229 32.6525L19.6051 34.0476L20.3387 31.7932L18.4053 30.3922H20.7918L21.0609 29.4429C21.5003 30.4955 22.2901 30.9779 23.102 31.5162ZM31.3933 33.2235L31.6116 34.0534L30.5018 33.2808C30.7391 33.2656 31.1584 33.2475 31.3933 33.2235ZM28.8933 33.2891L27.7668 34.0476L28.0389 33.2093C28.3306 33.2358 28.6002 33.2793 28.8933 33.2891ZM37.2155 31.7315L37.2243 31.7898L36.4874 34.0534L38.4144 32.6525L40.3316 34.0476L39.5986 31.7932L41.531 30.3922L39.5805 30.379C39.5433 30.4035 39.374 30.5375 39.3368 30.562C38.6622 31.0081 37.9528 31.3992 37.2155 31.7315ZM46.8325 21.4011L47.3067 22.8446H49.6932L47.7598 24.2456L48.4938 26.5L46.5756 25.1049L44.6486 26.5059L44.8874 25.6896C45.9394 24.0675 46.6201 22.6195 46.8325 21.4011Z" fill="black"/>
</svg>

