<svg width="36" height="88" viewBox="0 0 36 88" fill="none" xmlns="http://www.w3.org/2000/svg">
<path fill-rule="evenodd" clip-rule="evenodd" d="M27.8382 86.4192C27.5718 85.6985 27.3152 84.6046 27.3542 83.1107C27.3941 82.1932 27.4864 81.2173 27.5681 80.4705C27.6507 79.7238 27.7231 79.2059 27.7231 79.2059C27.7231 79.2059 27.6117 78.9502 27.4665 78.6063C27.3212 78.2624 27.1439 77.8299 27.0117 77.4758C26.8669 77.1092 26.8683 76.963 26.9147 76.8767C26.962 76.7903 27.0544 76.7643 27.0915 76.6372C27.0915 76.6372 27.1179 76.4144 27.0743 76.0868C27.0219 75.6659 26.8743 75.2624 26.6427 74.9071C26.3661 74.501 25.9048 73.6169 25.5034 72.8335C25.1019 72.0502 24.759 71.3693 24.7195 71.3693C24.6671 71.3693 24.7785 71.1856 24.9033 71.0023C25.0291 70.8189 25.1669 70.6356 25.1669 70.6356L24.6142 69.4039L24.0605 68.1723C24.0605 68.1723 22.4859 66.993 20.579 65.5056C18.6711 64.0187 16.4314 62.2236 15.1004 60.9915C13.7829 59.7598 11.8852 57.0736 10.2614 54.685C8.63757 52.2968 7.28661 50.207 7.06292 50.168C6.82577 50.1156 6.48282 50.1611 6.19973 50.22C5.91663 50.2794 5.69248 50.3509 5.69248 50.3509C5.69248 50.3509 5.62008 50.1476 5.50127 49.7945C5.38247 49.4404 5.21818 48.9359 5.03348 48.3335C4.94112 48.0453 4.69098 47.41 4.36798 46.6071C4.04497 45.8042 3.65004 44.8348 3.26763 43.8783C2.89868 42.9608 2.54273 42.0502 2.27913 41.3035C2.01599 40.5568 1.84428 39.9735 1.84428 39.7117C1.84428 39.1613 1.84428 38.4995 1.87723 37.8377C1.91018 37.176 1.97608 36.5142 2.10788 35.9638C2.25267 35.4264 2.71398 34.7451 3.12562 34.1979C3.53726 33.6508 3.89972 33.2382 3.84727 33.2382C3.80783 33.2382 3.71547 33.1008 3.63333 32.963C3.55072 32.8256 3.47832 32.6878 3.47832 32.6878C3.47832 32.6878 3.18177 32.8841 2.70423 32.9333C2.22668 32.9825 1.56768 32.8841 0.842781 32.2942C0.104884 31.7048 0.0125308 30.5646 0.434385 28.776C0.856239 26.9874 1.79137 24.55 3.10938 21.3659C4.44037 18.1818 5.382 16.2819 6.06096 15.1221C6.73946 13.9624 7.15435 13.5433 7.43141 13.3205C7.6272 13.1411 7.8328 12.9727 8.04725 12.8161C8.19529 12.7112 8.28765 12.6653 8.32756 12.6653C8.38 12.6653 9.06545 12.6458 9.73745 12.6263L11.0684 12.5868L11.2527 12.3641L11.4369 12.1413L12.728 12.0889L14.0191 12.0364C14.014 12.0364 14.428 12.0165 14.7616 11.4726C15.0953 10.9286 15.3482 9.86032 15.0206 7.76451C15.0206 7.76451 14.8823 7.42387 14.744 7.0475C14.6057 6.67112 14.4674 6.25809 14.4674 6.11376C14.4674 5.98242 14.5598 5.82509 14.6619 5.69097C14.764 5.55685 14.8758 5.44547 14.9153 5.40603C15.3585 4.96468 15.5794 4.7874 15.7042 4.39989C15.829 4.01238 15.8583 3.4137 15.9168 2.13004L16.5228 1.67153L17.1289 1.21301L17.4849 0.937806L17.8409 0.662603H5.50777C4.0513 0.66063 2.65302 1.23409 1.61734 2.25813C1.10511 2.76121 0.698266 3.36132 0.420573 4.0234C0.142879 4.68548 -9.65203e-05 5.39626 4.88862e-08 6.11422V82.0099C4.88862e-08 83.5168 0.619091 84.8858 1.61734 85.8785C2.64974 86.9091 4.049 87.4878 5.50777 87.4875H28.3821C28.3821 87.4875 28.1055 87.1404 27.8382 86.4192ZM10.4076 82.8318H7.27176L5.37411 74.21V82.8318H3.31868V71.8246H6.98217L8.32616 78.9794L8.35262 71.8246H10.4081L10.4076 82.8318ZM17.4014 74.8908C17.4014 75.9392 17.1113 76.6989 15.4248 76.9611V77.0136C16.7953 77.1184 17.4014 77.6424 17.4014 79.3985V80.3684C17.4014 82.2549 16.3474 82.8318 14.2915 82.8318H11.2081V71.8246H14.2915C15.9256 71.8246 17.4014 72.3755 17.4014 74.0527V74.8908ZM21.9745 82.8318L21.6853 79.844H20.4198L20.0244 82.8318H17.6789L19.6554 71.8246H23.1342L24.7149 82.8318H21.9745Z" fill="white"/>
<path fill-rule="evenodd" clip-rule="evenodd" d="M14.1544 73.4044H13.8379V76.4181H14.1544C14.5758 76.4181 14.7605 76.2344 14.7605 75.7104V74.1121C14.7605 73.5877 14.5758 73.4044 14.1544 73.4044ZM14.1544 77.7835H13.8379V81.2692H14.1544C14.5758 81.2692 14.7605 81.1908 14.7605 80.7448V78.3079C14.7605 77.8624 14.5758 77.7835 14.1544 77.7835ZM20.6692 78.2735H21.5129L21.0906 73.7404L20.6692 78.2735ZM33.601 50.2534C32.5644 50.8694 31.3804 51.1932 30.1746 51.1904C28.4074 51.195 26.7106 50.4974 25.4577 49.251C24.8382 48.6372 24.3468 47.9064 24.0119 47.1011C23.6771 46.2959 23.5055 45.4321 23.5071 44.56C23.5071 43.145 23.9619 41.828 24.736 40.7471C25.5101 39.6662 26.603 38.8211 27.8811 38.3492C27.9735 38.1784 28.0788 38.015 28.1614 37.8939C28.244 37.7728 28.3039 37.6939 28.3039 37.6939C28.3039 37.6939 28.2116 37.4711 28.0166 37.0878C27.7426 36.5504 27.4424 36.0268 27.1172 35.5187C26.6959 34.8764 26.1881 33.7826 25.7403 32.7147C25.2925 31.6464 24.9036 30.605 24.7198 30.0676C24.5485 29.5171 24.2975 28.0567 24.0673 26.7229C23.8371 25.3891 23.6259 24.1839 23.5336 24.1449C23.4412 24.0924 23.3758 24.0924 23.231 24.1514C23.0862 24.2103 22.862 24.3282 22.4532 24.5115C22.0318 24.6948 21.6429 25.1274 21.3236 25.5928C21.0038 26.0579 20.7532 26.5558 20.6084 26.87C20.4771 27.1847 20.0418 28.3244 19.6306 29.3858C19.218 30.4472 18.8301 31.4301 18.7902 31.4301C18.7377 31.4301 18.8301 31.541 18.9349 31.6524C19.0398 31.7638 19.1586 31.8747 19.1586 31.8747C19.1586 31.8747 19.3823 32.0125 19.6427 32.1959C19.903 32.3792 20.1991 32.6084 20.3444 32.7917C20.4766 32.9755 21.0957 35.0653 21.6823 37.1096C22.2689 39.1539 22.8217 41.1522 22.8217 41.1522L22.5451 41.6108L22.2685 42.0693C22.2685 42.0693 22.301 42.2596 22.3608 42.5802C22.4198 42.9014 22.5052 43.3534 22.611 43.8774C22.7288 44.4278 22.8676 45.0631 23.0226 45.7216C23.1776 46.3802 23.3489 47.0615 23.5331 47.7037C23.9021 48.9744 24.291 50.6131 24.587 51.933C24.8831 53.2528 25.0883 54.2553 25.0883 54.2553C25.0883 54.2553 25.3649 54.7142 25.7561 55.4118C26.2362 56.2614 26.69 57.1256 27.1168 58.0032C27.5656 58.9467 28.0658 61.1738 28.4547 63.1759C28.8436 65.178 29.1202 66.9531 29.1202 66.9925C29.1202 67.045 29.5091 67.6868 29.9208 68.4405C30.3324 69.1937 30.7673 70.0588 30.8596 70.5567C30.952 71.0547 30.8397 71.8738 30.7046 72.5681C30.5696 73.2628 30.4118 73.8327 30.4118 73.8327C30.4118 73.8327 30.4308 74.2657 30.4642 74.7437C30.4967 75.2217 30.5431 75.7461 30.5956 75.9299C30.6355 76.0998 30.6819 76.323 30.7506 76.549C30.8193 76.7746 30.9121 77.0038 31.0434 77.1876C31.1757 77.3714 31.2411 77.6661 31.2745 77.9608C31.307 78.2559 31.307 78.5506 31.307 78.7339C31.307 78.9172 31.676 80.1949 32.0449 81.492C32.4139 82.7891 32.7828 84.1062 32.7828 84.3679C32.7828 84.6436 32.5327 85.1676 32.2361 85.6586C31.9396 86.1496 31.5971 86.6085 31.4133 86.7524C31.3734 86.7789 31.2021 86.9492 31.0337 87.1195C30.8661 87.2898 30.7009 87.4601 30.6749 87.4866C32.1507 87.4341 33.4822 86.8048 34.4438 85.8187C35.4054 84.8325 35.9985 83.4894 35.9985 82.009V47.7826C35.4317 48.8036 34.6044 49.6562 33.601 50.2534ZM34.3816 2.25813C33.346 1.23392 31.9477 0.66043 30.4911 0.662604H22.0053C22.0977 0.701587 22.6045 1.0297 23.1321 1.39957C23.6589 1.76991 24.206 2.18295 24.3777 2.39225C24.549 2.61501 24.6144 2.89022 24.6144 3.21136C24.6144 3.53251 24.549 3.89914 24.4566 4.30568C24.3597 4.71356 24.2442 5.11681 24.1104 5.51416C23.9953 5.86454 23.903 6.11376 23.903 6.11376C23.903 6.11376 23.8375 6.27758 23.7814 6.45115C23.7252 6.62518 23.6788 6.80849 23.7187 6.84748C23.7712 6.89992 23.8176 7.0178 23.8501 7.12268C23.8826 7.22756 23.9025 7.31945 23.9025 7.31945C23.9025 7.31945 23.6324 7.81742 23.3498 8.32513C23.0662 8.83284 22.7697 9.35029 22.7172 9.38974C22.6773 9.44218 22.3084 10.084 21.8935 10.7361C21.4791 11.3881 21.0178 12.0499 20.7941 12.1413C20.6962 12.1701 20.6084 12.3149 20.5657 12.4685C20.523 12.6221 20.5258 12.7845 20.6094 12.849C20.7319 12.9432 21.0744 13.199 21.3862 13.431C21.6981 13.663 21.9798 13.871 21.9798 13.871L22.2564 13.9104L22.5339 13.9498L23.2185 14.4084L23.9039 14.8669C23.9039 14.8669 23.9304 14.9783 24.0362 15.1356C24.1415 15.2929 24.3262 15.4957 24.6427 15.6795C24.9583 15.8633 25.4595 16.2693 25.9863 16.7673C26.5139 17.2653 27.0667 17.8547 27.488 18.4051C27.8969 18.9555 28.1471 19.8461 28.3058 20.8355C28.4636 21.8249 28.5295 22.9127 28.5684 23.8562C28.6218 24.8127 28.832 26.3196 29.0497 27.62C29.2674 28.9203 29.491 30.0146 29.5699 30.1455C29.6623 30.2764 30.0312 31.1414 30.4104 32.0747C30.7891 33.0085 31.178 34.0109 31.3098 34.417C31.4546 34.823 31.5734 35.4848 31.656 36.045C31.7386 36.6051 31.7846 37.0636 31.7846 37.0636L32.4162 37.8368L33.0487 38.61C33.6678 38.8986 34.2345 39.2852 34.732 39.747C35.2295 40.2088 35.6574 40.7462 35.9998 41.3356V6.11422C35.9994 5.39627 35.856 4.68558 35.5782 4.02356C35.3004 3.36154 34.8936 2.76141 34.3816 2.25813Z" fill="white"/>
</svg>
