<svg width="84" height="85" viewBox="0 0 84 85" fill="none" xmlns="http://www.w3.org/2000/svg">
<path d="M41.9999 0.0175781C65.1231 0.0175781 83.9998 18.8944 83.9998 42.0811C84.0635 65.327 65.1231 84.0811 41.7544 84.0811C18.8177 84.0811 0 65.1406 0 42.0175C0 18.8944 18.8177 0.0812281 41.9999 0.0175781ZM22.8776 5.36873C22.5094 5.55513 22.2639 5.61423 22.0775 5.73699C18.3267 8.07385 14.9441 10.8426 12.1162 14.2252C6.94695 20.3128 3.93721 27.3825 3.25979 35.3752C2.76878 40.9082 2.82788 46.5048 4.30547 51.9151C10.9478 76.634 38.6174 88.382 61.004 76.0202C61.2495 75.8975 61.4359 75.7747 61.8042 75.5883C61.5587 76.7568 61.3132 77.7388 61.0676 78.8481C61.4996 78.6617 61.6814 78.6026 61.9269 78.4799C68.4465 74.4199 73.6112 69.0733 76.9938 62.1218C81.4811 52.8971 82.0994 43.1814 80.0081 33.402C74.5342 8.12841 46.0644 -4.66524 23.3732 7.76015C23.064 7.94655 22.6958 8.12841 22.2048 8.37392C22.4457 7.27368 22.6321 6.4144 22.8776 5.36873Z" fill="black"/>
<path d="M22.9366 5.36858C22.6911 6.41426 22.5047 7.27354 22.2592 8.38286C22.7502 8.13736 23.1185 7.95095 23.4277 7.7691C46.1189 -4.65175 74.5295 8.20101 80.0625 33.411C82.213 43.2494 81.5401 52.9652 77.0482 62.1308C73.6657 69.0777 68.501 74.3697 61.9814 78.4888C61.795 78.6116 61.5495 78.6752 61.1221 78.8571C61.3676 77.6886 61.6131 76.7657 61.8586 75.5973C61.4904 75.7837 61.2449 75.9064 61.0585 76.0292C38.6764 88.3909 11.0023 76.643 4.35993 51.924C2.88234 46.4501 2.82324 40.9171 3.31425 35.3841C3.99167 27.3915 6.9423 20.3172 12.1707 14.2296C14.9986 10.847 18.3811 8.07825 22.1319 5.74139C22.3229 5.61409 22.5684 5.55044 22.9366 5.36858Z" fill="white"/>
<path d="M50.6105 64.8318C50.3014 63.7861 50.0559 62.9269 49.874 62.1858C47.7827 63.0451 45.8777 64.0316 43.8454 64.6454C40.1537 65.7502 36.5257 65.5047 33.0204 63.9089C32.2839 63.5997 32.0975 63.1724 32.2202 62.3722C32.9567 58.8032 33.2659 55.3025 32.343 51.7335C32.2793 51.5471 32.2202 51.3016 32.1566 51.1198C32.1566 51.0561 32.0338 50.997 31.9111 50.7515C30.0652 53.4566 28.0966 55.9799 25.4551 58.0713C23.3638 53.5203 23.3638 48.8466 23.9775 43.9273C22.6864 44.2956 21.5179 44.6639 20.1631 45.0321C20.6541 40.7266 22.2544 37.0986 24.7732 33.6569C23.973 33.4705 23.2956 33.3478 22.5 33.225C24.1003 29.9652 26.3144 27.3238 29.3241 25.046C28.8331 27.3829 28.9559 29.3515 30.9836 30.7654C30.7972 30.088 30.6153 29.4106 30.4926 28.6741C30.4289 28.1194 30.4289 27.5693 30.4926 27.0737C30.8608 25.1051 32.2748 24.3049 34.1843 24.8596C34.5525 24.9824 34.9208 25.1051 35.4164 25.3506C34.8617 23.9958 33.9388 23.4457 32.834 22.9501C32.834 22.8273 32.834 22.7637 32.7703 22.6409C34.5525 22.0863 36.2756 21.4089 38.1215 20.9815C39.7218 20.6132 41.4404 20.6132 43.1044 20.4268C44.7047 20.2404 45.9323 20.8587 46.9779 22.0272C47.3462 22.3954 47.7145 22.7637 48.1464 23.132C48.21 23.0683 48.3328 23.0683 48.3919 23.0092C48.2691 22.3954 48.1464 21.8408 48.0236 21.1634C48.21 21.1634 48.3919 21.1634 48.5783 21.227C50.4832 21.7817 52.3291 22.5182 53.8658 23.8094C54.1113 23.9958 54.4795 24.2413 54.5432 24.5459C54.9115 25.778 55.2206 27.0692 55.5889 28.2376C53.8067 27.0055 51.9608 25.7143 49.9922 24.364C49.6831 25.287 49.5012 25.9644 49.2557 26.7009C47.8418 25.8416 46.6097 25.0415 45.3185 24.364C44.8275 24.1185 44.1501 23.9958 43.5954 24.1185C41.4449 24.4868 39.4127 25.287 37.5668 26.8237C37.876 27.0692 38.1806 27.2556 38.6716 27.6238C37.3168 28.3013 36.1483 28.915 35.23 30.2699C36.8303 30.0243 37.0122 31.07 37.5032 31.993C38.3033 33.5933 39.7173 34.3935 41.4995 34.4526C43.6499 34.5162 45.805 34.4526 48.0191 34.4526C47.4053 33.7752 46.6642 33.0977 45.9914 32.3612C45.2548 31.5019 44.3319 31.1928 43.2226 31.3155C41.6859 31.4383 40.2083 31.07 38.9808 30.0835C40.7039 28.0557 42.2997 27.9921 45.7458 29.8379C46.3005 29.5288 46.8506 29.2833 47.4053 28.9787C47.4689 29.1651 47.5281 29.2242 47.5281 29.2242C46.7915 30.7609 46.7915 30.7609 48.0191 31.993C48.7556 32.7295 49.433 33.5296 50.1104 34.2662C51.0333 34.0798 51.9563 33.8343 52.8792 33.8343C53.8021 33.7706 54.725 33.957 55.7707 34.0207C54.4159 32.5431 53.0656 31.1928 51.7108 29.7788C51.7744 29.6561 51.8972 29.5333 51.9563 29.4106C52.4473 29.7197 52.9383 29.9652 53.493 30.2699C54.1067 30.1471 54.475 28.915 55.3388 29.7788C55.9526 30.3926 55.8935 31.0109 55.2752 31.8065C55.7662 32.3612 56.3208 32.8522 56.8755 33.5296C56.9983 33.0977 57.0619 32.9159 57.1847 32.6704H57.3711C61.7993 38.9444 63.0905 45.7095 60.5672 53.2702C59.9534 52.5928 59.3988 52.0382 58.7214 51.3653C58.2894 54.2568 57.5529 56.7755 56.139 59.0533C54.7932 61.3902 52.9474 63.2951 50.6105 64.8318ZM43.7818 39.5582C44.5183 40.9722 45.2594 42.2633 45.8731 43.5545C46.1823 44.2319 46.6097 44.3547 47.228 44.1683C49.3784 43.6136 51.0424 42.2633 52.761 40.9085C52.8246 40.8449 52.9474 40.7221 52.9474 40.5993C52.9474 39.6764 53.0701 38.7535 52.8837 37.8942C52.8201 37.526 52.0245 37.3396 51.5926 37.0349C51.2834 36.8485 51.0379 36.603 50.7333 36.5439C50.3014 36.4212 49.8104 36.2348 49.3784 36.3575C47.2871 36.9758 45.5685 38.2079 43.7818 39.5582ZM47.6599 46.9371C47.9054 47.4917 48.3373 48.1692 48.6419 48.9057C48.8874 49.4603 49.1966 49.5831 49.6876 49.3376C50.6105 48.8466 51.5335 48.4147 52.5791 47.9236L52.9474 50.8743C53.0701 50.8743 53.1929 50.8743 53.2566 50.8106C54.6705 49.7058 55.5934 48.2283 55.7162 46.5052C55.7798 45.705 55.2252 44.5366 54.5477 44.1046C53.9931 43.7364 52.7655 43.9182 52.0881 44.291C50.6105 44.9094 49.1966 45.955 47.6599 46.9371ZM56.821 36.3621C56.1435 36.794 55.6525 37.1622 55.0979 37.5305C54.9115 37.6533 54.7296 37.8988 54.7296 38.0852C54.1749 40.4857 55.5889 42.0224 57.0665 43.6818C58.053 41.2177 57.7439 38.8217 56.821 36.3621Z" fill="black"/>
<path d="M46.8595 12.0112C46.9823 13.8571 47.105 15.4529 47.2914 17.2396C48.3371 16.0712 49.1964 15.1483 50.1193 14.1662L50.3057 14.3526C49.9374 16.1348 49.5055 17.9807 49.0736 19.8265C42.9223 18.2899 37.021 18.9673 31.3653 21.977C30.5651 20.1948 29.7058 18.5354 28.7829 16.5031C30.0741 17.3033 31.1834 18.0398 32.4746 18.84C32.2291 17.1169 31.9836 15.5211 31.6744 13.7343C33.643 15.0892 35.3661 16.2576 37.2074 17.5488C37.8212 15.7029 38.4395 13.9798 39.1124 12.0158C40.2172 13.7389 41.2038 15.2756 42.2494 16.9987C43.8452 15.3301 45.2592 13.7934 46.8595 12.0112ZM8.91501 53.4565C8.79226 53.0882 8.66951 52.8427 8.54675 52.5336C9.71518 52.0425 10.82 51.6106 12.052 51.1196C12.4203 52.1017 12.7886 53.0882 13.2205 54.193C13.4069 54.5613 13.7751 55.0523 13.8342 55.6069C13.8979 56.4071 13.1568 56.6526 12.5431 56.8981C11.9293 57.1436 11.3746 57.3892 10.6972 57.6347C10.5745 57.3255 10.4517 57.08 10.2653 56.7117C10.9427 56.4026 11.6201 56.2207 12.2339 55.8525C12.4794 55.7297 12.6022 55.2978 12.7249 55.0523C12.4158 54.9295 12.0475 54.684 11.7429 54.7431C11.1291 54.8659 10.5108 55.175 9.77429 55.4797C9.65153 55.2341 9.52878 54.925 9.34238 54.6204C10.0198 54.3112 10.6972 54.1294 11.2473 53.7611C11.4928 53.5747 11.6156 53.2064 11.7383 52.9018C11.4292 52.8382 11.0609 52.5927 10.7563 52.6563C10.2698 52.9018 9.65608 53.211 8.91501 53.4565ZM22.136 63.295C22.4452 63.5405 22.6907 63.7269 22.9953 63.9724C22.0133 65.2045 21.0904 66.3729 20.0447 67.6641C20.6584 68.1551 21.2131 68.6461 21.8905 69.2008C21.7041 69.4463 21.5223 69.6918 21.2768 70.0009L18.508 67.7868C19.7401 66.3093 20.9085 64.8317 22.136 63.295ZM38.5577 72.8288C39.2943 72.7061 39.6034 72.9516 39.417 73.629L39.2306 74.9202C39.0442 76.025 38.2486 76.7024 37.2029 76.5205C36.0981 76.3978 35.4798 75.6613 35.5435 74.4928C35.6071 73.8154 35.7299 73.138 35.789 72.3424C36.1572 72.406 36.4027 72.4651 36.771 72.5288C36.6482 73.2062 36.5255 73.8836 36.5255 74.4974C36.5255 74.8656 36.8346 75.3566 37.1392 75.4794C37.6303 75.7249 37.9985 75.293 38.1213 74.802C38.3122 74.1791 38.435 73.5062 38.5577 72.8288ZM10.329 46.8142C9.77429 44.7864 8.36035 46.1367 7.25557 45.7685C7.25557 45.5821 7.19192 45.2775 7.13281 44.9092C8.424 44.7864 9.65608 44.6 10.8245 44.4773C10.9473 45.2775 11.0109 45.8912 11.07 46.6277C10.8836 46.6914 10.6381 46.6914 10.329 46.8142ZM15.4346 64.5861C15.2482 64.3997 15.1254 64.1542 14.8799 63.9087L17.6487 61.5082C18.1397 62.0629 18.6307 62.613 19.1854 63.2313C19.0626 63.3541 18.8171 63.5405 18.6307 63.7223C17.0349 62.3129 16.5394 64.2815 15.4346 64.5861ZM11.7429 59.4214C11.5565 59.1123 11.4337 58.8667 11.2519 58.5621C12.3567 57.9484 13.4023 57.33 14.5708 56.7163C14.7572 57.0254 14.8799 57.2709 15.1254 57.5756C13.957 58.1939 12.8522 58.744 11.7429 59.4214ZM15.8665 55.6069C16.1757 56.0389 16.4803 56.2844 16.4212 56.5299C16.3575 56.7754 16.0529 56.9618 15.8665 57.1436C15.6801 56.9572 15.3118 56.7117 15.2527 56.5299C15.1891 56.2844 15.5573 56.0389 15.8665 55.6069Z" fill="black"/>
<path d="M43.7812 39.558C45.5635 38.2031 47.2865 36.9756 49.3779 36.4209C49.8098 36.2982 50.3008 36.4846 50.7327 36.6073C51.0419 36.7301 51.2874 36.9165 51.592 37.0983C52.0239 37.3438 52.8241 37.5894 52.8832 37.9576C53.0696 38.8169 52.9469 39.7398 52.9469 40.6627C52.9469 40.7855 52.8241 40.9082 52.7604 40.9719C51.101 42.3267 49.4416 43.677 47.2274 44.2317C46.55 44.4181 46.1818 44.2317 45.8726 43.6179C45.2588 42.2631 44.5223 40.9719 43.7812 39.558ZM47.6594 46.9368C49.1961 45.9548 50.61 44.9682 52.0876 44.168C52.8241 43.7998 53.9925 43.6134 54.5472 43.9816C55.2246 44.4135 55.7793 45.582 55.7156 46.3821C55.5929 48.1052 54.67 49.5783 53.256 50.6876C53.1924 50.7513 53.0696 50.7513 52.9469 50.7513L52.5786 47.8006C51.5329 48.2916 50.61 48.7827 49.6871 49.2146C49.196 49.4601 48.8869 49.3373 48.6414 48.7827C48.3322 48.1689 47.964 47.4324 47.6594 46.9368ZM56.8204 36.3618C57.7433 38.8214 58.1116 41.1583 57.0659 43.7407C55.5883 42.0812 54.1744 40.4809 54.7291 38.144C54.7927 37.9576 54.9746 37.7121 55.0973 37.5894C55.5883 37.162 56.143 36.8528 56.8204 36.3618Z" fill="white"/>
<path d="M33.9443 72.0284C33.2077 71.4147 32.4667 71.4147 31.671 71.9057C30.9345 72.3376 30.6254 73.3196 30.8709 74.2425C31.1164 75.0427 31.7938 75.5337 32.7167 75.5337H33.2077C32.7167 76.5794 32.103 76.5794 30.7481 75.5337C30.5617 75.7201 30.3799 75.8429 30.1344 76.0884C31.3028 77.6887 33.3941 77.8115 34.0079 76.3339C34.5626 75.0427 34.8081 73.6879 35.24 72.3376C34.7444 72.2103 34.2534 72.2739 33.9443 72.0284ZM34.067 73.8106C33.6351 74.0561 33.2668 74.4881 32.8349 74.5472C32.2212 74.6108 31.8529 74.1153 31.912 73.5015C31.9757 72.8877 32.3439 72.4558 32.894 72.5786C33.3259 72.7013 33.6942 73.1332 34.0625 73.3787V73.8106H34.067ZM12.7897 39.9897H7.07031V40.9718C7.68408 40.9718 8.3024 41.0354 8.91616 41.0354C8.91616 41.4673 8.91616 41.8356 8.97981 42.1402C9.10257 43.1859 9.83909 43.8633 10.8848 43.8633C11.8668 43.8633 12.667 43.2495 12.7897 42.263C12.8534 41.5264 12.7897 40.7899 12.7897 39.9897ZM11.3758 42.5721C11.253 42.6949 10.5756 42.7585 10.5165 42.5721C10.2073 42.2039 10.0846 41.6492 9.83909 41.0354H11.9304C11.6849 41.6492 11.6213 42.2039 11.3758 42.5721ZM29.6433 70.4917C29.0296 69.9371 28.3522 69.8143 27.6156 70.0598C26.8155 70.369 26.3835 71.0419 26.3244 71.9057C26.3244 72.6422 26.6336 73.3833 27.3701 73.6879C28.0475 73.997 28.725 74.1789 29.5206 74.4244C30.0116 73.3787 30.5026 72.2739 30.9982 71.1646C30.5026 70.86 30.0116 70.7964 29.6433 70.4917ZM28.4749 72.8877C28.1066 72.8877 27.552 72.3967 27.4929 72.0284C27.3701 71.4738 27.802 70.9237 28.4158 70.9828C28.8477 71.0464 29.216 71.4147 29.6479 71.6602V72.0921C29.2114 72.3967 28.8432 72.8877 28.4749 72.8877ZM25.8289 71.0419C26.5654 70.1189 26.5654 69.196 25.8925 68.4595C25.2151 67.723 24.0467 67.6002 23.2465 68.214C22.4463 68.8278 22.2008 69.9962 22.6918 70.7964C23.2465 71.6556 24.2922 72.0875 25.397 71.5329C25.0287 71.2874 24.7832 71.0419 24.474 70.9191C23.8603 70.7327 23.3693 70.4281 23.492 69.5643C24.2922 70.1826 25.0287 70.6145 25.8289 71.0419ZM25.4606 70.0007C24.8469 69.6325 24.4149 69.3233 23.9239 69.0187C24.8423 68.5822 25.2742 68.8323 25.4606 70.0007ZM42.4915 75.7792C41.8141 76.1475 41.3868 75.902 41.0776 75.1655H43.7827C43.7827 73.8106 43.2917 73.0741 42.246 72.8923C41.3868 72.7059 40.4638 73.2014 40.0956 74.0607C39.7273 74.9836 40.0319 76.0293 40.773 76.584C41.5732 77.1386 42.7416 76.9522 43.4781 76.2157C43.2326 75.6565 42.9871 75.5337 42.4915 75.7792ZM42.7416 74.3653H41.0822C41.6323 73.506 42.0005 73.506 42.7416 74.3653ZM16.6042 59.8531C16.1723 58.9302 15.2493 58.4983 14.2673 58.7483C13.3444 58.9938 12.667 59.8531 12.7897 60.8397C12.8534 61.8217 13.5899 62.6219 14.9402 62.6855C14.6947 62.2536 14.631 61.949 14.3855 61.7626C13.7081 61.2079 13.5853 60.9033 14.0173 60.1623C14.5719 60.8988 15.0629 61.5762 15.6176 62.3127C16.7269 61.6353 17.0361 60.776 16.6042 59.8531ZM15.4994 61.0215C15.1902 60.5896 14.9447 60.1623 14.6401 59.7894C14.7038 59.7258 14.7629 59.6667 14.8265 59.5439C15.1357 59.7303 15.5039 59.8531 15.6858 60.0986C15.8722 60.3441 15.8086 60.7124 15.8722 61.0215H15.4994ZM11.744 49.2145C11.6804 48.2915 11.0666 47.555 10.1437 47.3686C9.16167 47.1822 8.23875 47.6778 7.87048 48.4734C7.43857 49.4554 7.80683 50.5011 8.85251 51.1785C8.97527 50.9921 9.16167 50.7466 9.28442 50.5647C8.79341 49.8873 8.3024 49.2736 9.16167 48.4734C9.40718 49.4554 9.65268 50.2556 9.89819 51.1785C11.253 50.8739 11.8077 50.2601 11.744 49.2145ZM10.3301 50.0146C10.2073 49.4009 10.0846 48.9098 9.96184 48.2915C11.0075 48.7825 11.0712 49.2736 10.3301 50.0146Z" fill="black"/>
</svg>
