<svg width="36" height="36" viewBox="0 0 36 36" fill="none" xmlns="http://www.w3.org/2000/svg">
<circle cx="18" cy="18" r="18" fill="#0A0A0A"/>
<path d="M9 16.0533L17.7518 26.1152L26.5035 16.0533L25.1934 13.4069L21.2891 10.7866L17.7255 10.0005L14.162 10.7866L10.2315 13.4069L9 16.0533Z" fill="white"/>
<path d="M9.52441 15.669L17.7013 24.464L25.9274 15.669L25.2199 13.4064L21.2895 10.7861L17.7013 10L14.1623 10.7861L10.2319 13.4064L9.52441 15.669Z" fill="white"/>
<path d="M10.8867 14.7242L17.6995 22.4202L24.5646 14.7242L23.5408 12.6586L21.2892 10.7861L17.7052 10L14.1621 10.7861L11.8491 12.6586L10.8867 14.7242Z" fill="white"/>
<path d="M21.8916 14.6821L17.7639 10L13.6115 14.6821L17.6991 22.4202L21.8916 14.6821Z" fill="white"/>
</svg>
