<svg width="142" height="84" viewBox="0 0 142 84" fill="none" xmlns="http://www.w3.org/2000/svg">
<path fill-rule="evenodd" clip-rule="evenodd" d="M108.524 31.9693L107.001 36.0556L102.035 33.6518L100.594 33.4913L87.2522 33.4512C86.7716 33.371 86.3311 32.9305 86.1321 32.4892C85.6106 31.2079 85.8513 29.6048 85.8111 28.1229H86.5726C86.892 21.9938 86.8518 15.9048 82.2456 11.7784C77.3986 7.17206 69.5468 6.49088 63.3375 8.57378C59.6924 9.65534 56.6877 13.4215 56.3274 17.1869C56.1677 18.2685 56.2071 19.4295 56.0474 20.5512C53.163 22.7945 50.159 25.078 47.3941 27.4016H57.0888L58.1303 28.8442L55.1656 35.1337C55.1656 35.4539 55.0854 35.7748 55.2459 36.0548C55.8067 36.6959 56.6483 36.5756 57.4491 36.5756H59.1316L59.6523 40.7414C50.959 45.5475 48.7156 54.9629 48.7557 64.376L54.9651 64.4176L58.05 70.1456L6.69364 70.1055C4.28983 69.7846 1.9269 68.2224 0.804463 65.9382C0.323853 64.818 -0.0364158 63.6941 0.00294129 62.3726L0.0430552 6.73006C0.36321 4.16655 2.16607 1.56217 4.6501 0.600951C5.41075 0.280796 6.25239 0.0401139 7.17349 0H83.648L108.524 31.9693Z" fill="white"/>
<path fill-rule="evenodd" clip-rule="evenodd" d="M132.359 0.00173301C134.923 0.322644 137.527 2.12474 138.489 4.60878L139.05 6.53198L139.13 16.7466L139.09 63.4165C138.849 65.8605 137.166 68.2242 134.882 69.3458C133.722 69.8666 132.52 70.2669 131.077 70.1473H115.615V63.3371L128.032 63.2969C129.594 63.0563 131.037 62.2547 131.998 60.8931L135.202 54.8042C135.924 53.0407 133.721 52.2391 133.04 50.8775C131.678 49.3948 131.597 47.1923 129.634 46.0699L124.187 42.9849C124.266 42.2652 124.747 41.5037 124.466 40.6621C123.666 40.021 123.306 38.4589 121.983 38.7389H121.863L121.983 37.4969C121.102 36.7756 120.821 35.053 119.38 35.2937C119.82 33.5309 118.218 32.4895 117.457 31.168C117.096 30.7668 116.536 30.7267 116.055 30.7668L98.0674 0.000976562L132.359 0.00173301Z" fill="white"/>
<path fill-rule="evenodd" clip-rule="evenodd" d="M20.7938 50.9968C21.5552 52.2797 21.8753 54.0818 21.3546 55.6031C20.7938 57.5263 18.8706 59.2104 16.908 59.4896C14.5042 59.7704 12.2609 58.7282 11.0991 56.6052C10.0977 54.763 10.2582 51.9989 11.6599 50.4368C13.0624 48.7542 15.065 48.1132 17.2282 48.4734C18.7008 48.8163 19.9806 49.7221 20.7938 50.9968Z" fill="black"/>
<path fill-rule="evenodd" clip-rule="evenodd" d="M27.443 73.7517C28.0439 74.4715 28.0969 75.3941 28.0576 76.3947V80.4212C27.9455 81.7737 27.5891 82.9227 25.961 83.2443C25.0793 83.3639 24.1582 83.2042 23.477 82.6441C22.9162 82.0424 22.6959 81.3211 22.736 80.4402V74.8734C22.8564 74.1922 23.3574 73.5504 23.9977 73.1894C25.1202 72.789 26.562 72.8291 27.443 73.7517ZM64.8587 73.5504C65.58 74.3118 65.7003 75.2723 65.6193 76.3546H63.9769C64.017 75.7529 63.9769 75.1928 63.6969 74.7122C63.4161 74.4314 62.9355 74.3512 62.6146 74.5525L62.2944 75.0331L62.2543 81.0411C62.3345 81.3219 62.4549 81.7223 62.8151 81.7639C63.2556 81.804 63.6969 81.7223 63.8566 81.2818C64.0571 80.7217 63.9368 80.0193 63.9769 79.4191C63.6159 79.379 63.2556 79.4191 62.8954 79.4191V78.0371H65.6995V83.1255H64.898L64.5378 82.4042C64.0965 83.0059 63.4963 83.3268 62.7349 83.2852C62.0938 83.2852 61.5731 83.0059 61.0925 82.5639C60.5718 81.8843 60.4514 81.0827 60.5317 80.2002L60.5718 74.8742C60.652 74.2724 61.0524 73.7109 61.5731 73.312C62.5351 72.7496 63.9777 72.789 64.8587 73.5504ZM104.358 73.6306C104.758 74.1521 105.16 74.834 104.918 75.3941L103.435 75.5538C103.356 75.1133 103.196 74.6327 102.756 74.4715C102.355 74.392 101.915 74.5131 101.714 74.9135C101.273 76.9154 103.958 77.5164 104.719 79.1194C105.2 80.0004 105.359 81.3219 104.759 82.2029C104.078 83.205 102.836 83.3647 101.674 83.205C100.993 83.0453 100.393 82.4035 100.112 81.8033L99.8312 80.4803L101.475 80.2411C101.555 80.7217 101.595 81.2023 101.996 81.5626C102.236 81.8033 102.677 81.7639 102.996 81.6822C103.437 81.4824 103.558 81.0403 103.477 80.5999C102.757 78.517 99.592 77.7571 99.9924 75.192C100.072 74.5517 100.233 73.9901 100.714 73.5496C101.673 72.7496 103.435 72.6293 104.358 73.6306ZM4.36916 78.9582C4.84977 76.9949 5.21004 75.0331 5.61118 73.0705H7.89464V83.1255H6.4127V75.354C5.82812 77.9338 5.29392 80.5248 4.81041 83.1255H3.96802C3.4473 80.5211 2.92733 77.9576 2.44596 75.354H2.36573V83.1255H0.883789V73.0705H3.16725L4.36916 78.9582ZM15.7456 83.1255H14.0631C13.9026 82.4042 13.9026 81.6428 13.7422 80.9215H11.8599L11.5397 83.0854L9.8572 83.1255L11.7395 73.0705H13.8633L15.7456 83.1255ZM20.3928 81.7639C20.3133 82.2846 19.9122 82.8447 19.3914 83.0453C18.8306 83.3261 18.1101 83.2451 17.4289 83.2845V81.7632C17.9095 81.7632 18.4703 81.8033 18.6709 81.281L18.711 73.069H20.4336L20.3928 81.7639ZM35.0949 74.2323C35.5755 75.3131 35.6557 76.8753 35.0147 77.9175C34.8149 78.1983 34.5742 78.4382 34.254 78.5987L35.6959 83.1248H33.9331L32.7713 79.0392C32.5314 78.878 32.2006 79.0793 31.8797 78.9991V83.1248H30.1276V73.0698C31.8896 73.2295 34.0928 72.5483 35.0949 74.2323ZM42.5455 81.5626L45.2695 81.6027V83.1255H40.8229V73.0698H42.5455V81.5626ZM51.9594 74.5926H49.075L49.0349 77.1561H51.2782V78.6789H49.075C49.0349 79.6401 49.075 80.6006 49.0349 81.5633C50.0763 81.6428 51.1178 81.6035 52.1592 81.6035V83.1263H47.3122V73.0713H51.9586L51.9594 74.5926ZM58.9702 83.0854H57.3279L57.0077 80.9215C56.4469 80.8019 55.7657 80.9616 55.1647 80.9215L54.8045 83.1255H53.1212L54.9642 73.0705H57.1273L58.9702 83.0854ZM69.6458 81.1221C69.7261 81.4029 70.0258 81.6822 70.3066 81.7639C70.7471 81.804 71.2277 81.7223 71.4275 81.2818C71.5887 78.5987 71.3874 75.7945 71.4275 73.0698H73.191V81.1614C73.0298 81.8827 72.6695 82.6441 71.949 82.9651C71.0271 83.4457 69.5444 83.404 68.7437 82.7244C68.0625 82.1628 67.902 81.4029 67.902 80.5605V73.0705H69.6451L69.6458 81.1221ZM79.6811 74.5926H76.8164V77.1561H79.0401V78.6789H76.8164V81.5823H79.9211V83.1255H75.0741V73.0705H79.6819L79.6811 74.5926ZM89.9359 74.2323C90.3764 75.1133 90.4165 76.5544 89.7361 77.3574L89.0943 77.8782C89.6945 78.078 90.1766 78.6797 90.3363 79.2799C90.577 80.3622 90.4158 81.5641 89.7762 82.405C88.5743 83.6069 86.611 82.9265 85.0087 83.1263V73.0713C86.7313 73.2295 88.9338 72.5483 89.9359 74.2323ZM98.0283 83.0854H96.3458L96.0249 80.9208H94.1418L93.8224 83.1255H92.18L94.0222 73.0698H96.1861L98.0283 83.0854ZM111.407 74.5926H108.523V77.1561H110.727V78.6789H108.523V81.5823H111.608V83.1255H106.761V73.0705H111.407V74.5926ZM118.298 74.2323C118.74 75.1133 118.78 76.5544 118.098 77.3574L117.496 77.8782C118.058 78.078 118.579 78.6797 118.698 79.2799C118.939 80.3622 118.819 81.5641 118.138 82.405C116.936 83.6069 114.973 82.9265 113.371 83.1263V73.0713C115.093 73.2295 117.337 72.5483 118.298 74.2323ZM126.27 83.0854H124.628L124.307 80.9208H122.425L122.104 83.1255H120.42L122.264 73.0698H124.428L126.27 83.0854ZM129.676 81.5823H132.359V83.1255H127.953V73.0698H129.676V81.5823ZM136.044 81.5823H138.769V83.1255H134.322V73.0698H136.044V81.5823Z" fill="white"/>
<path fill-rule="evenodd" clip-rule="evenodd" d="M26.2015 74.9936V81.2423C26.1212 81.5231 25.8404 81.6828 25.5604 81.7229C24.9322 81.7229 24.5386 81.4172 24.5386 81.016C24.5386 79.0118 24.4985 77.1167 24.5386 75.0338C24.6189 74.7129 24.8785 74.513 25.2395 74.4722C25.6005 74.4722 26.0811 74.5138 26.2015 74.9936ZM33.4121 74.8347C33.8526 75.4349 33.7724 76.5157 33.4916 77.1568C33.0912 77.6775 32.4403 77.5178 31.8795 77.5178V74.5539C32.4002 74.5933 33.0511 74.3927 33.4121 74.8347ZM88.3334 75.0338C88.5347 75.5144 88.5741 76.2758 88.2933 76.7163C87.9322 77.1969 87.3313 77.1969 86.7705 77.1568V74.5539C87.3313 74.5532 88.0541 74.4321 88.3334 75.0338ZM116.695 75.0338C116.897 75.5144 116.936 76.2758 116.655 76.7163C116.294 77.1969 115.694 77.1969 115.133 77.1568V74.5539C115.734 74.5532 116.415 74.4321 116.695 75.0338ZM95.7454 79.3403H94.4625L95.1043 75.1541L95.7454 79.3403ZM124.026 79.3403H122.704L123.346 75.1541L124.026 79.3403ZM55.4052 79.3608L56.0455 75.1935L56.6865 79.3608H55.4052ZM12.1396 79.3403L12.7815 75.2737L13.4225 79.3403H12.1396ZM88.3334 78.9997C88.7739 79.5205 88.7338 80.3613 88.5741 81.0017C88.453 81.4035 88.0125 81.6435 87.6121 81.6828H86.7712V78.6395C87.3313 78.6395 87.933 78.5994 88.3334 78.9997ZM116.735 78.9997C117.137 79.5205 117.096 80.3613 116.936 81.0017C116.817 81.4035 116.375 81.6435 116.015 81.6828H115.133V78.6395C115.694 78.6395 116.334 78.5994 116.735 78.9997Z" fill="black"/>
<path fill-rule="evenodd" clip-rule="evenodd" d="M140.72 69.6841C141.093 70.0611 141.281 70.5167 141.281 71.0488C141.281 71.5869 141.093 72.0448 140.72 72.4233C140.344 72.8017 139.889 72.9924 139.353 72.9924C138.818 72.9924 138.363 72.8017 137.989 72.4233C137.615 72.0448 137.43 71.5869 137.43 71.0488C137.43 70.5167 137.616 70.0611 137.992 69.6841C138.367 69.3057 138.823 69.1165 139.353 69.1165C139.887 69.1165 140.343 69.3057 140.72 69.6841ZM140.941 69.4669C140.735 69.2559 140.488 69.0891 140.215 68.9768C139.942 68.8645 139.649 68.809 139.353 68.8138C139.06 68.8094 138.768 68.865 138.497 68.9774C138.225 69.0897 137.979 69.2563 137.775 69.4669C137.563 69.6718 137.396 69.9179 137.283 70.1899C137.17 70.462 137.114 70.7543 137.118 71.0488C137.118 71.6724 137.336 72.203 137.769 72.6412C138.203 73.0817 138.732 73.3005 139.353 73.3005C139.975 73.3005 140.504 73.0817 140.941 72.6412C141.379 72.2022 141.599 71.6717 141.599 71.0488C141.599 70.4304 141.379 69.9029 140.941 69.4669ZM139.686 70.9451C139.595 70.9822 139.457 70.9996 139.274 70.9996H138.883V70.108H139.253C139.493 70.108 139.668 70.139 139.776 70.1996C139.886 70.2616 139.94 70.3812 139.94 70.5606C139.94 70.7498 139.854 70.8785 139.686 70.9451ZM138.449 72.2741H138.883V71.3031H139.225C139.456 71.3031 139.617 71.3296 139.708 71.3826C139.862 71.4741 139.941 71.6618 139.941 71.9472V72.1425L139.95 72.2219C139.951 72.2325 139.954 72.2408 139.956 72.2484L139.962 72.2734H140.368L140.353 72.2424C140.339 72.2011 140.331 72.1575 140.331 72.1137C140.327 72.0532 140.325 71.9926 140.325 71.932V71.7519C140.32 71.6135 140.273 71.4799 140.191 71.3689C140.1 71.2388 139.96 71.1593 139.766 71.1283C139.918 71.1048 140.038 71.0647 140.124 71.0102C140.285 70.905 140.365 70.7438 140.365 70.5235C140.365 70.2147 140.237 70.0058 139.983 69.9014C139.84 69.8423 139.617 69.8128 139.31 69.8128H138.448L138.449 72.2741Z" fill="white"/>
</svg>
