<svg width="137" height="47" viewBox="0 0 137 47" fill="none" xmlns="http://www.w3.org/2000/svg">
<path d="M94.6652 46.8743C92.9424 46.5745 91.407 45.561 90.6064 44.1821C90.0653 43.2482 89.789 41.8219 89.9294 40.6759C89.9751 40.2723 91.6369 33.7937 94.5404 22.6698C97.0336 13.1186 99.1235 5.16073 99.1846 4.98547C99.3536 4.50122 99.8182 3.66877 100.19 3.17876C101.431 1.55075 103.398 0.37933 105.317 0.125675C105.731 0.125675 109.525 0.010377 117.978 0.125675C129.948 0.125675 130.052 0.125679 130.684 0.298625C134.031 1.08265 136.458 3.01619 136.922 5.25527C137.087 6.06235 137.013 6.58234 136.484 8.45362L136.382 8.83411H125.889H115.397L114.987 9.04164C114.487 9.2953 113.957 9.81414 113.747 10.2811C113.655 10.4656 112.154 15.8696 110.399 22.279C107.97 31.15 107.208 34.0266 107.207 34.331C107.205 34.919 107.44 35.288 107.978 35.567C108.183 35.6823 109.169 35.6823 118.649 35.6823C125.387 35.6823 129.093 35.6823 129.093 35.7976C129.093 36.0051 127.512 41.6582 127.329 42.0998C126.435 44.2651 124.304 46.0902 121.811 46.827L121.271 46.9884L108.14 46.9988C100.918 47.0045 94.8554 46.9873 94.667 46.9988L94.6652 46.8743ZM4.71277 46.6206C2.57031 46.2286 0.891715 44.8208 0.28937 42.908C-0.12848 41.5821 -0.0976562 40.4372 0.406961 38.5475C0.564512 37.9594 2.85858 29.3363 5.50531 19.3885C8.15216 9.44057 10.3652 1.13338 10.4232 0.926993L10.5259 0.546511H19.2708H28.0157L27.97 0.707927C27.9472 0.823224 25.8534 7.87944 23.328 16.4484C20.2384 26.9324 18.7225 32.1819 18.6934 32.4978C18.6477 33.0166 18.7733 33.6542 19.0256 34.1535C19.2505 34.6031 19.7746 35.0643 20.3666 35.3549C20.8929 35.6085 20.9044 35.6085 21.8177 35.6085C22.6226 35.6062 22.8087 35.6085 23.3042 35.4125C24.7525 34.9167 26.1173 33.72 26.7697 32.3583C26.8724 32.1392 29.0378 24.9043 31.58 16.2731L36.2019 0.582258H43.9682C51.4394 0.582258 51.733 0.582255 51.6938 0.697552C51.671 0.81285 49.3593 9.44634 46.5558 19.9811C43.7523 30.5158 41.3458 39.554 41.2081 40.0648C40.756 41.7412 39.9671 43.0671 38.718 44.2478C37.7134 45.1932 36.5649 45.8965 35.3171 46.3185C33.9769 46.7682 34.8342 46.7451 19.3486 46.7451C7.70839 46.7405 5.15745 46.7359 4.71277 46.6206ZM46.0858 46.6091C46.1086 46.4938 46.6155 44.747 47.2183 42.6244C49.5999 34.2388 54.0741 18.5064 54.2067 18.0499L54.3471 17.5656H71.6914C88.1767 17.5656 89.0339 17.5725 88.9987 17.6924C88.9759 17.8077 88.2909 20.1183 87.4715 22.9292C86.6518 25.7402 85.9505 28.113 85.9127 28.2007L85.8442 28.3621H76.8719H67.8997L65.4195 37.5133L62.9393 46.6633H54.4944C46.4727 46.6633 46.0512 46.6748 46.0857 46.548L46.0858 46.6091ZM56.1817 11.2115C56.1817 11.0962 59.3498 0.0472751 59.3859 0.0103799C59.3973 -0.00114988 67.235 0.0103768 76.7933 0H94.1721L92.5312 5.61154L90.8901 11.2231H73.536C63.0059 11.2231 56.1817 11.2035 56.1817 11.2115Z" fill="white"/>
</svg>
